<svg width="18" height="18" viewBox="0 0 18 18" fill="none" xmlns="http://www.w3.org/2000/svg">
<path fill-rule="evenodd" clip-rule="evenodd" d="M9 0C13.9706 0 18 4.02944 18 9C18 13.9706 13.9706 18 9 18C4.02944 18 0 13.9706 0 9C0 4.02944 4.02944 0 9 0ZM9 1C4.58172 1 1 4.58172 1 9C1 13.4183 4.58172 17 9 17C13.4183 17 17 13.4183 17 9C17 4.58172 13.4183 1 9 1Z" fill="#FBFBFD"/>
<path d="M8.98719 4C9.89147 4 10.6175 4.26063 11.1653 4.78189C11.7218 5.29401 12 6.00274 12 6.90809C12 7.8043 11.7261 8.49017 11.1783 8.96571C10.6305 9.4321 9.90451 9.66529 9.00023 9.66529L8.94806 10.7215H7.34384L7.27863 8.38958H7.86554C8.622 8.38958 9.20456 8.28441 9.61323 8.07407C10.0219 7.86374 10.2262 7.47965 10.2262 6.92181C10.2262 6.51943 10.1132 6.19936 9.88712 5.96159C9.66975 5.72382 9.36977 5.60494 8.98719 5.60494C8.58722 5.60494 8.2742 5.71925 8.04813 5.94787C7.83076 6.1765 7.72207 6.492 7.72207 6.89438H6.00047C5.99177 6.33653 6.10481 5.83813 6.33957 5.39918C6.57433 4.96022 6.91779 4.61728 7.36992 4.37037C7.83076 4.12346 8.36985 4 8.98719 4ZM8.13943 14C7.80902 14 7.53513 13.8948 7.31775 13.6845C7.10908 13.465 7.00474 13.1952 7.00474 12.8752C7.00474 12.5551 7.10908 12.2899 7.31775 12.0796C7.53513 11.8601 7.80902 11.7503 8.13943 11.7503C8.46114 11.7503 8.72634 11.8601 8.93502 12.0796C9.1437 12.2899 9.24804 12.5551 9.24804 12.8752C9.24804 13.1952 9.1437 13.465 8.93502 13.6845C8.72634 13.8948 8.46114 14 8.13943 14Z" fill="#FBFBFD"/>
</svg>
