<svg width="18" height="18" viewBox="0 0 18 18" fill="none" xmlns="http://www.w3.org/2000/svg">
<g clip-path="url(#clip0_243_646)">
<path d="M10.333 1.33333C10.333 2.06971 9.73605 2.66667 8.99967 2.66667C8.26329 2.66667 7.66634 2.06971 7.66634 1.33333C7.66634 0.596954 8.26329 0 8.99967 0C9.73605 0 10.333 0.596954 10.333 1.33333Z" fill="#FBFBFD"/>
<path d="M14.6663 2.66667C14.6663 3.40305 14.0694 4 13.333 4C12.5966 4 11.9997 3.40305 11.9997 2.66667C11.9997 1.93029 12.5966 1.33333 13.333 1.33333C14.0694 1.33333 14.6663 1.93029 14.6663 2.66667Z" fill="#FBFBFD"/>
<path d="M17.6663 6.66667C17.6663 7.40305 17.0694 8 16.333 8C15.5966 8 14.9997 7.40305 14.9997 6.66667C14.9997 5.93029 15.5966 5.33333 16.333 5.33333C17.0694 5.33333 17.6663 5.93029 17.6663 6.66667Z" fill="#FBFBFD"/>
<path d="M17.6663 11.3333C17.6663 12.0697 17.0694 12.6667 16.333 12.6667C15.5966 12.6667 14.9997 12.0697 14.9997 11.3333C14.9997 10.597 15.5966 10 16.333 10C17.0694 10 17.6663 10.597 17.6663 11.3333Z" fill="#FBFBFD"/>
<path d="M14.6663 15C14.6663 15.7364 14.0694 16.3333 13.333 16.3333C12.5966 16.3333 11.9997 15.7364 11.9997 15C11.9997 14.2636 12.5966 13.6667 13.333 13.6667C14.0694 13.6667 14.6663 14.2636 14.6663 15Z" fill="#FBFBFD"/>
<path d="M10.333 16.6667C10.333 17.403 9.73605 18 8.99967 18C8.26329 18 7.66634 17.403 7.66634 16.6667C7.66634 15.9303 8.26329 15.3333 8.99967 15.3333C9.73605 15.3333 10.333 15.9303 10.333 16.6667Z" fill="#FBFBFD"/>
<path d="M5.99967 15C5.99967 15.7364 5.40272 16.3333 4.66634 16.3333C3.92996 16.3333 3.33301 15.7364 3.33301 15C3.33301 14.2636 3.92996 13.6667 4.66634 13.6667C5.40272 13.6667 5.99967 14.2636 5.99967 15Z" fill="#FBFBFD"/>
<path d="M2.99967 11.3333C2.99967 12.0697 2.40272 12.6667 1.66634 12.6667C0.929962 12.6667 0.333008 12.0697 0.333008 11.3333C0.333008 10.597 0.929962 10 1.66634 10C2.40272 10 2.99967 10.597 2.99967 11.3333Z" fill="#FBFBFD"/>
<path d="M2.99967 6.66667C2.99967 7.40305 2.40272 8 1.66634 8C0.929962 8 0.333008 7.40305 0.333008 6.66667C0.333008 5.93029 0.929962 5.33333 1.66634 5.33333C2.40272 5.33333 2.99967 5.93029 2.99967 6.66667Z" fill="#FBFBFD"/>
<path d="M5.66634 2.66667C5.66634 3.40305 5.06939 4 4.33301 4C3.59663 4 2.99967 3.40305 2.99967 2.66667C2.99967 1.93029 3.59663 1.33333 4.33301 1.33333C5.06939 1.33333 5.66634 1.93029 5.66634 2.66667Z" fill="#FBFBFD"/>
<path d="M10.333 9C10.333 9.73638 9.73605 10.3333 8.99967 10.3333C8.26329 10.3333 7.66634 9.73638 7.66634 9C7.66634 8.26362 8.26329 7.66667 8.99967 7.66667C9.73605 7.66667 10.333 8.26362 10.333 9Z" fill="#FBFBFD"/>
</g>
<defs>
<clipPath id="clip0_243_646">
<rect width="18" height="18" fill="white"/>
</clipPath>
</defs>
</svg>
