<svg width="18" height="18" viewBox="0 0 18 18" fill="none" xmlns="http://www.w3.org/2000/svg">
<g clip-path="url(#clip0_243_644)">
<path d="M4.84866 10.075L11.1662 3.60424C11.2339 3.53491 11.7754 2.98028 12.6328 2.67985C13.8286 2.28698 15.047 2.61052 16.0172 3.60424C17.0099 4.59797 17.3033 5.82279 16.9197 7.04761C16.6489 7.92578 16.0849 8.52664 16.0172 8.59597L9.22582 15.552C8.05256 16.7537 5.11942 18.3021 2.4119 15.552C-0.273061 12.802 1.2612 9.77457 2.4119 8.59597L9.69964 1.10838C9.97039 0.831061 10.3991 0.831061 10.6698 1.10838C10.9406 1.3857 10.9406 1.82478 10.6698 2.1021L3.40465 9.58969C3.29184 9.68213 1.01301 12.1087 3.40465 14.5583C5.72861 16.9386 8.00744 14.8125 8.25563 14.5583L15.047 7.57914C15.047 7.57914 15.4306 7.18627 15.6111 6.63163C15.8367 5.89212 15.6787 5.24504 15.047 4.59797C13.6932 3.21138 12.3846 4.36687 12.1364 4.59797L5.81886 11.0456C5.59323 11.2767 5.43529 11.6696 5.81886 12.0624C6.20243 12.4553 6.56343 12.2704 6.78905 12.0624L11.1662 7.57914C11.437 7.32493 11.8882 7.32493 12.1364 7.57914C12.4072 7.85645 12.4072 8.31865 12.1364 8.59597L7.75925 13.0562C7.15006 13.657 5.90911 14.1423 4.84866 13.0562C3.76566 11.97 4.23947 10.6759 4.84866 10.075Z" fill="#FBFBFD"/>
</g>
<defs>
<clipPath id="clip0_243_644">
<rect width="18" height="18" fill="white"/>
</clipPath>
</defs>
</svg>
